<?xml version="1.0" encoding="UTF-8"?>
<!DOCTYPE svg PUBLIC "-//W3C//DTD SVG 1.1//EN" "http://www.w3.org/Graphics/SVG/1.1/DTD/svg11.dtd">
<svg xmlns="http://www.w3.org/2000/svg" version="1.1" width="250px" height="250px" style="shape-rendering:geometricPrecision; text-rendering:geometricPrecision; image-rendering:optimizeQuality; fill-rule:evenodd; clip-rule:evenodd" xmlns:xlink="http://www.w3.org/1999/xlink">
<g><path style="opacity:0.989" fill="#fabf35" d="M 115.5,-0.5 C 116.833,-0.5 118.167,-0.5 119.5,-0.5C 127.188,1.79156 131.355,7.12489 132,15.5C 132.571,45.8354 133.238,76.1688 134,106.5C 136.539,110.376 138.872,110.376 141,106.5C 143.792,84.7492 147.125,63.0825 151,41.5C 152.014,33.6381 155.514,27.1381 161.5,22C 169.08,19.4159 174.913,21.5825 179,28.5C 180.527,34.4149 180.861,40.4149 180,46.5C 175.509,77.762 171.676,109.095 168.5,140.5C 142.489,137.753 123.322,147.753 111,170.5C 106.159,177.544 103.993,185.21 104.5,193.5C 105.814,192.687 106.981,191.687 108,190.5C 112.225,181.048 117.225,172.048 123,163.5C 135.777,151.63 150.944,146.63 168.5,148.5C 168.521,155.14 170.187,161.306 173.5,167C 176.167,169 178.833,169 181.5,167C 189.63,158.531 198.63,151.198 208.5,145C 217.468,143.702 226.135,144.702 234.5,148C 239.153,150.942 240.653,155.109 239,160.5C 236.925,164.579 234.092,168.079 230.5,171C 220.669,176.414 211.002,182.081 201.5,188C 188.833,202 176.167,216 163.5,230C 150.633,239.069 136.299,244.403 120.5,246C 103.333,248.033 86.6665,246.033 70.5,240C 61.0548,235.555 53.8882,228.721 49,219.5C 42.4742,207.589 38.1408,194.923 36,181.5C 32.9236,145.631 28.2569,109.965 22,74.5C 20.5677,67.7511 21.7344,61.5844 25.5,56C 32.4769,51.9434 38.6436,52.7767 44,58.5C 46.4346,63.2361 48.1013,68.2361 49,73.5C 51.9771,88.2198 55.1438,102.886 58.5,117.5C 64.0926,118.924 66.7592,116.59 66.5,110.5C 62.8075,82.2446 60.3075,53.9113 59,25.5C 61.3074,15.1916 67.474,11.6916 77.5,15C 83.5058,19.9652 86.6725,26.4652 87,34.5C 89.4689,58.1893 92.1356,81.856 95,105.5C 98.0961,108.353 100.763,108.02 103,104.5C 103.167,97.1667 103.333,89.8333 103.5,82.5C 102.652,59.836 102.486,37.1693 103,14.5C 103.831,6.51796 107.998,1.51796 115.5,-0.5 Z"/></g>
<g><path style="opacity:0.996" fill="#e48e16" d="M 168.5,140.5 C 168.5,143.167 168.5,145.833 168.5,148.5C 150.944,146.63 135.777,151.63 123,163.5C 117.225,172.048 112.225,181.048 108,190.5C 106.981,191.687 105.814,192.687 104.5,193.5C 103.993,185.21 106.159,177.544 111,170.5C 123.322,147.753 142.489,137.753 168.5,140.5 Z"/></g>
</svg>
