<?xml version="1.0" encoding="UTF-8"?>
<!DOCTYPE svg PUBLIC "-//W3C//DTD SVG 1.1//EN" "http://www.w3.org/Graphics/SVG/1.1/DTD/svg11.dtd">
<svg xmlns="http://www.w3.org/2000/svg" version="1.1" width="250px" height="250px" style="shape-rendering:geometricPrecision; text-rendering:geometricPrecision; image-rendering:optimizeQuality; fill-rule:evenodd; clip-rule:evenodd" xmlns:xlink="http://www.w3.org/1999/xlink">
<g><path style="opacity:0.99" fill="#f9bf35" d="M 152.5,75.5 C 151.505,87.989 151.171,100.656 151.5,113.5C 138.275,112.076 126.775,115.743 117,124.5C 115.154,108.686 113.321,93.0192 111.5,77.5C 114.9,61.4612 124.567,55.6278 140.5,60C 147.498,62.8218 151.498,67.9885 152.5,75.5 Z"/></g>
<g><path style="opacity:0.985" fill="#f9bf35" d="M 192.5,118.5 C 183.995,116.066 175.328,114.399 166.5,113.5C 163.203,113.11 160.203,112.11 157.5,110.5C 158.152,98.8447 158.485,87.178 158.5,75.5C 160.058,67.7756 164.724,63.2756 172.5,62C 188.302,60.2187 196.302,67.2187 196.5,83C 195.495,94.8794 194.162,106.713 192.5,118.5 Z"/></g>
<g><path style="opacity:0.992" fill="#f9bf35" d="M 105.5,79.5 C 108.519,99.2371 110.852,119.07 112.5,139C 111.846,155.68 103.846,161.013 88.5,155C 82.2251,149.617 78.7251,142.784 78,134.5C 75.8097,121.384 73.3097,108.384 70.5,95.5C 67.251,79.988 73.4177,70.988 89,68.5C 96.6516,69.0673 102.152,72.7339 105.5,79.5 Z"/></g>
<g><path style="opacity:0.994" fill="#e48e16" d="M 152.5,75.5 C 154.5,76.8333 156.5,76.8333 158.5,75.5C 158.485,87.178 158.152,98.8447 157.5,110.5C 156.596,111.209 156.263,112.209 156.5,113.5C 159.833,113.5 163.167,113.5 166.5,113.5C 175.328,114.399 183.995,116.066 192.5,118.5C 192.371,120.216 192.038,121.883 191.5,123.5C 174.691,119.845 157.691,118.678 140.5,120C 132.033,121.145 125.2,124.978 120,131.5C 117.762,139.512 120.262,145.345 127.5,149C 132.752,150.088 138.086,150.588 143.5,150.5C 151.841,150.025 160.174,149.858 168.5,150C 183.127,154.764 187.294,164.264 181,178.5C 178.045,182.227 174.212,184.227 169.5,184.5C 170.553,179.911 172.386,175.578 175,171.5C 176.548,163.711 173.381,159.211 165.5,158C 153.173,158.212 140.839,158.212 128.5,158C 124.206,156.855 120.539,154.688 117.5,151.5C 110.57,165.088 100.236,168.588 86.5,162C 83.0412,159.918 80.3745,157.085 78.5,153.5C 76.7415,162.886 71.0748,167.886 61.5,168.5C 52.4938,167.835 45.4938,163.835 40.5,156.5C 38.6516,145.229 36.9849,133.895 35.5,122.5C 38.3067,131.699 41.14,141.032 44,150.5C 49.6107,160.613 57.7773,163.446 68.5,159C 72.8876,154.777 74.5543,149.611 73.5,143.5C 72.1218,127.895 69.4551,112.562 65.5,97.5C 67.5138,97.6085 69.1805,96.9418 70.5,95.5C 73.3097,108.384 75.8097,121.384 78,134.5C 78.7251,142.784 82.2251,149.617 88.5,155C 103.846,161.013 111.846,155.68 112.5,139C 110.852,119.07 108.519,99.2371 105.5,79.5C 108.01,79.9465 110.01,79.2798 111.5,77.5C 113.321,93.0192 115.154,108.686 117,124.5C 126.775,115.743 138.275,112.076 151.5,113.5C 151.171,100.656 151.505,87.989 152.5,75.5 Z"/></g>
<g><path style="opacity:0.991" fill="#f9bf35" d="M 65.5,97.5 C 69.4551,112.562 72.1218,127.895 73.5,143.5C 74.5543,149.611 72.8876,154.777 68.5,159C 57.7773,163.446 49.6107,160.613 44,150.5C 41.14,141.032 38.3067,131.699 35.5,122.5C 33.487,113.507 34.3203,104.84 38,96.5C 44.5333,88.9077 52.3666,87.0744 61.5,91C 63.7337,92.6379 65.067,94.8045 65.5,97.5 Z"/></g>
<g><path style="opacity:1" fill="#f2ad2a" d="M 157.5,110.5 C 160.203,112.11 163.203,113.11 166.5,113.5C 163.167,113.5 159.833,113.5 156.5,113.5C 156.263,112.209 156.596,111.209 157.5,110.5 Z"/></g>
<g><path style="opacity:0.995" fill="#f9bf35" d="M 191.5,123.5 C 208.824,132.797 216.824,147.464 215.5,167.5C 213.274,198.868 198.607,222.368 171.5,238C 162.183,241.746 152.516,244.079 142.5,245C 129.5,245.667 116.5,245.667 103.5,245C 87.5513,244.582 74.3846,238.415 64,226.5C 49.8892,205.335 42.0559,182.001 40.5,156.5C 45.4938,163.835 52.4938,167.835 61.5,168.5C 71.0748,167.886 76.7415,162.886 78.5,153.5C 80.3745,157.085 83.0412,159.918 86.5,162C 100.236,168.588 110.57,165.088 117.5,151.5C 120.539,154.688 124.206,156.855 128.5,158C 140.839,158.212 153.173,158.212 165.5,158C 173.381,159.211 176.548,163.711 175,171.5C 172.386,175.578 170.553,179.911 169.5,184.5C 174.212,184.227 178.045,182.227 181,178.5C 187.294,164.264 183.127,154.764 168.5,150C 160.174,149.858 151.841,150.025 143.5,150.5C 138.086,150.588 132.752,150.088 127.5,149C 120.262,145.345 117.762,139.512 120,131.5C 125.2,124.978 132.033,121.145 140.5,120C 157.691,118.678 174.691,119.845 191.5,123.5 Z"/></g>
</svg>
