<?xml version="1.0" encoding="UTF-8"?>
<!DOCTYPE svg PUBLIC "-//W3C//DTD SVG 1.1//EN" "http://www.w3.org/Graphics/SVG/1.1/DTD/svg11.dtd">
<svg xmlns="http://www.w3.org/2000/svg" version="1.1" width="250px" height="250px" style="shape-rendering:geometricPrecision; text-rendering:geometricPrecision; image-rendering:optimizeQuality; fill-rule:evenodd; clip-rule:evenodd" xmlns:xlink="http://www.w3.org/1999/xlink">
<g><path style="opacity:0.984" fill="#fabf35" d="M 168.5,135.5 C 150.717,127.31 132.05,123.81 112.5,125C 109.18,125.743 106.013,126.91 103,128.5C 99.2331,122.63 95.7331,116.63 92.5,110.5C 80.8931,83.012 71.8931,54.6787 65.5,25.5C 65.4167,14.4516 70.9167,8.78495 82,8.5C 90.795,9.96206 96.4617,14.9621 99,23.5C 107.545,49.8044 116.879,75.8044 127,101.5C 134.111,107.631 138.777,105.965 141,96.5C 147.207,68.4663 153.54,40.4663 160,12.5C 164.997,4.16798 172.163,1.33465 181.5,4C 188.55,7.58865 191.883,13.422 191.5,21.5C 189.71,36.6148 187.21,51.6148 184,66.5C 178.671,89.4827 173.504,112.483 168.5,135.5 Z"/></g>
<g><path style="opacity:0.992" fill="#f9bf35" d="M 89.5,111.5 C 92.5541,118.326 95.2208,125.326 97.5,132.5C 91.3145,142.181 92.3145,151.014 100.5,159C 103.309,160.741 106.309,161.908 109.5,162.5C 109.517,174.993 103.517,179.493 91.5,176C 88.7047,174.207 86.2047,172.04 84,169.5C 78.3925,158.611 72.5591,147.944 66.5,137.5C 64.2807,132.73 62.9473,127.73 62.5,122.5C 62.0432,112.093 67.0432,106.76 77.5,106.5C 82.2037,106.619 86.2037,108.286 89.5,111.5 Z"/></g>
<g><path style="opacity:0.997" fill="#e48e16" d="M 92.5,110.5 C 95.7331,116.63 99.2331,122.63 103,128.5C 106.013,126.91 109.18,125.743 112.5,125C 132.05,123.81 150.717,127.31 168.5,135.5C 167.85,137.435 167.517,139.435 167.5,141.5C 153.365,135.79 138.698,132.123 123.5,130.5C 113.905,130.077 106.405,133.743 101,141.5C 99.475,149.262 102.642,154.096 110.5,156C 118.424,157.769 126.424,159.103 134.5,160C 144.509,161.698 152.009,166.865 157,175.5C 158.089,180.561 157.256,185.228 154.5,189.5C 152.382,190.946 150.049,191.613 147.5,191.5C 147.534,187.396 148.201,183.396 149.5,179.5C 149.257,175.849 147.59,173.016 144.5,171C 141.205,168.566 137.538,166.899 133.5,166C 127.262,165.328 121.095,164.495 115,163.5C 115.4,175.427 109.733,182.094 98,183.5C 93.5766,182.805 89.5766,181.138 86,178.5C 86.0339,185.944 82.5339,190.778 75.5,193C 63.7966,194.981 55.13,190.814 49.5,180.5C 47.409,175.809 46.0756,170.809 45.5,165.5C 49.1417,170.097 52.3084,175.097 55,180.5C 62.7651,190.267 71.0984,190.934 80,182.5C 80.6288,177.672 79.9621,173.005 78,168.5C 73.4884,158.812 68.9884,149.145 64.5,139.5C 65.8333,139.5 66.5,138.833 66.5,137.5C 72.5591,147.944 78.3925,158.611 84,169.5C 86.2047,172.04 88.7047,174.207 91.5,176C 103.517,179.493 109.517,174.993 109.5,162.5C 106.309,161.908 103.309,160.741 100.5,159C 92.3145,151.014 91.3145,142.181 97.5,132.5C 95.2208,125.326 92.5541,118.326 89.5,111.5C 90.609,111.443 91.609,111.11 92.5,110.5 Z"/></g>
<g><path style="opacity:0.993" fill="#f9bf35" d="M 167.5,141.5 C 183.264,149.855 190.264,163.022 188.5,181C 189.196,213.981 173.53,234.647 141.5,243C 123.397,247.639 105.397,247.305 87.5,242C 75.117,236.95 65.9503,228.45 60,216.5C 55.5834,204.752 52.0834,192.752 49.5,180.5C 55.13,190.814 63.7966,194.981 75.5,193C 82.5339,190.778 86.0339,185.944 86,178.5C 89.5766,181.138 93.5766,182.805 98,183.5C 109.733,182.094 115.4,175.427 115,163.5C 121.095,164.495 127.262,165.328 133.5,166C 137.538,166.899 141.205,168.566 144.5,171C 147.59,173.016 149.257,175.849 149.5,179.5C 148.201,183.396 147.534,187.396 147.5,191.5C 150.049,191.613 152.382,190.946 154.5,189.5C 157.256,185.228 158.089,180.561 157,175.5C 152.009,166.865 144.509,161.698 134.5,160C 126.424,159.103 118.424,157.769 110.5,156C 102.642,154.096 99.475,149.262 101,141.5C 106.405,133.743 113.905,130.077 123.5,130.5C 138.698,132.123 153.365,135.79 167.5,141.5 Z"/></g>
<g><path style="opacity:0.989" fill="#f9bf35" d="M 64.5,139.5 C 68.9884,149.145 73.4884,158.812 78,168.5C 79.9621,173.005 80.6288,177.672 80,182.5C 71.0984,190.934 62.7651,190.267 55,180.5C 52.3084,175.097 49.1417,170.097 45.5,165.5C 39.5029,157.504 38.3363,148.837 42,139.5C 49.5215,131.575 57.0215,131.575 64.5,139.5 Z"/></g>
</svg>
