<?xml version="1.0" encoding="utf-8"?>

<!DOCTYPE svg PUBLIC "-//W3C//DTD SVG 1.1//EN" "http://www.w3.org/Graphics/SVG/1.1/DTD/svg11.dtd">
<!-- Uploaded to: SVG Repo, www.svgrepo.com, Generator: SVG Repo Mixer Tools -->
<svg height="70px" width="70px" version="1.1" id="_x32_" xmlns="http://www.w3.org/2000/svg" xmlns:xlink="http://www.w3.org/1999/xlink" 
	 viewBox="0 0 512 512"  xml:space="preserve">
<style type="text/css">
	.st0{fill:#000000;}
</style>
<g>
	<path class="st0" d="M416.585,50.544v-0.114h-3.686h-3.686v0.114c-2.044,0.132-4.063,0.378-6.042,0.723
		c-5.162-26.003-28.153-45.66-55.648-45.66c-10.482,0-20.307,2.856-28.745,7.83C308.889,5.056,296.101,0,282.155,0
		c-27.685,0-50.798,19.936-55.756,46.202c-3.998-0.894-8.15-1.37-12.41-1.37c-31.28,0-56.733,25.452-56.733,56.733v98.126
		c-2.028-3.005-4.014-5.762-5.976-8.298c-5.54-7.075-10.489-12.09-16.178-16.424c-4.137-3.127-8.274-5.573-12.738-7.535
		c-5.968-2.626-12.213-4.219-18.566-4.736c-1.535-0.131-3.128-0.197-4.704-0.197c-15.833,0-31.058,6.697-41.778,18.369
		c-11.942,13.026-17.096,30.484-14.125,47.901c1.378,7.707,4.604,18.681,9.915,33.841c9.07,25.888,23.105,60.443,41.72,102.738
		c19.174,43.461,47.615,81.184,82.268,109.1C206.708,498.317,248.954,512,293.014,512c78.238,0,141.684-42.066,165.578-109.773
		c7.182-20.528,10.99-41.122,11.04-59.63v-5.704v-5.606V107.162C469.632,77.122,446.157,52.448,416.585,50.544z M293.014,478.38
		c-36.008,0-71.113-10.998-94.826-30.107c-30.123-24.27-55.634-58.021-72.59-96.467c-21.89-49.74-34.014-81.053-40.761-100.3
		c-6.747-19.272-8.15-26.413-8.504-28.383c-1.206-7.074,0.904-14.232,5.754-19.518c4.416-4.81,10.556-7.485,17.006-7.485
		l1.954,0.081c2.897,0.238,5.532,1.018,7.773,2.003c2.257,0.993,4.161,2.184,5.91,3.505c3.48,2.651,6.467,5.794,9.956,10.251
		c6.886,8.906,15.775,23.336,28.875,50.47c5.63,11.705,11.195,19.831,15.948,25.067c4.768,5.262,8.593,7.576,10.982,8.537
		c1.617,0.64,2.626,0.755,3.39,0.763c0.854-0.008,1.462-0.165,2.225-0.501c0.739-0.345,1.592-0.944,2.372-1.798
		c1.642-1.666,2.496-4.358,2.397-5.228V258.45V101.564c0-12.764,10.35-23.113,23.113-23.113c12.763,0,23.114,10.35,23.114,23.113
		v133.772h21.939V56.733c0-12.764,10.35-23.113,23.113-23.113c12.764,0,23.114,10.35,23.114,23.113v178.604h19.141V62.339
		c0-12.764,10.35-23.113,23.114-23.113c12.763,0,23.113,10.35,23.113,23.113v172.998h19.149V107.162
		c0-12.764,10.35-23.114,23.114-23.114c12.763,0,23.113,10.35,23.113,23.114v224.124c0,0.016,0,1.535,0,5.606
		c0,1.502,0,3.34,0,5.606c-0.041,14.347-2.971,30.944-9.128,48.542C405.126,452.706,348.024,478.38,293.014,478.38z"/>
</g>
</svg>